<svg xmlns="http://www.w3.org/2000/svg" style="display:none" aria-hidden="true">
    <defs>
        <!-- Icon-Stil: 24x24 viewBox, currentColor, stroke 1.7, rounded -->

        <symbol id="icon-football" viewBox="0 0 24 24" fill="none" stroke="currentColor" stroke-width="1.7" stroke-linecap="round" stroke-linejoin="round">
            <circle cx="12" cy="12" r="9"/>
            <path d="M12 5 L8 8 L9.5 13 L14.5 13 L16 8 Z"/>
            <path d="M8 8 L4.5 10"/>
            <path d="M16 8 L19.5 10"/>
            <path d="M9.5 13 L7 17.5"/>
            <path d="M14.5 13 L17 17.5"/>
            <path d="M12 5 L12 3.2"/>
        </symbol>

        <symbol id="icon-tennis" viewBox="0 0 24 24" fill="none" stroke="currentColor" stroke-width="1.7" stroke-linecap="round" stroke-linejoin="round">
            <circle cx="12" cy="12" r="9"/>
            <path d="M3.5 8 Q12 11 20.5 8"/>
            <path d="M3.5 16 Q12 13 20.5 16"/>
        </symbol>

        <symbol id="icon-ski" viewBox="0 0 24 24" fill="none" stroke="currentColor" stroke-width="1.7" stroke-linecap="round" stroke-linejoin="round">
            <path d="M4 19 L20 6"/>
            <path d="M5.5 17.5 L8 20"/>
            <path d="M18.5 7.5 L21 10"/>
            <path d="M3 21 L21 21"/>
            <circle cx="15" cy="5" r="1.5"/>
        </symbol>

        <symbol id="icon-taekwondo" viewBox="0 0 24 24" fill="none" stroke="currentColor" stroke-width="1.7" stroke-linecap="round" stroke-linejoin="round">
            <path d="M7 12 Q7 8 10 8 L14 8 Q17 8 17 11 L17 14 Q17 17 14 17 L12 17"/>
            <path d="M17 11 L20 10 L20 13 L17 14"/>
            <path d="M10 8 L10 5 L13 5 L13 8"/>
            <path d="M7 12 L4 14 L7 16"/>
        </symbol>

        <symbol id="icon-field" viewBox="0 0 24 24" fill="none" stroke="currentColor" stroke-width="1.7" stroke-linecap="round" stroke-linejoin="round">
            <rect x="2.5" y="6" width="19" height="12" rx="1"/>
            <line x1="12" y1="6" x2="12" y2="18"/>
            <circle cx="12" cy="12" r="2"/>
            <path d="M2.5 9 L5 9 L5 15 L2.5 15"/>
            <path d="M21.5 9 L19 9 L19 15 L21.5 15"/>
        </symbol>

        <symbol id="icon-house" viewBox="0 0 24 24" fill="none" stroke="currentColor" stroke-width="1.7" stroke-linecap="round" stroke-linejoin="round">
            <path d="M3 11 L12 4 L21 11 L21 20 L14 20 L14 14 L10 14 L10 20 L3 20 Z"/>
        </symbol>

        <symbol id="icon-tennis-court" viewBox="0 0 24 24" fill="none" stroke="currentColor" stroke-width="1.7" stroke-linecap="round" stroke-linejoin="round">
            <rect x="2.5" y="6" width="19" height="12" rx="1"/>
            <line x1="12" y1="6" x2="12" y2="18"/>
            <line x1="5" y1="9" x2="19" y2="9"/>
            <line x1="5" y1="15" x2="19" y2="15"/>
        </symbol>

        <symbol id="icon-bus" viewBox="0 0 24 24" fill="none" stroke="currentColor" stroke-width="1.7" stroke-linecap="round" stroke-linejoin="round">
            <path d="M4 17 L4 7 Q4 5 6 5 L18 5 Q20 5 20 7 L20 17"/>
            <line x1="4" y1="11" x2="20" y2="11"/>
            <line x1="4" y1="17" x2="20" y2="17"/>
            <line x1="12" y1="5" x2="12" y2="11"/>
            <circle cx="8" cy="18.5" r="1.5"/>
            <circle cx="16" cy="18.5" r="1.5"/>
        </symbol>

        <symbol id="icon-handshake" viewBox="0 0 24 24" fill="none" stroke="currentColor" stroke-width="1.7" stroke-linecap="round" stroke-linejoin="round">
            <path d="M3 12 L7 8 L11 12 L9 14 L7 12"/>
            <path d="M13 12 L17 8 L21 12"/>
            <path d="M11 12 L13 14 L15 12"/>
            <path d="M9 14 L12 17 L15 14"/>
        </symbol>

        <symbol id="icon-scales" viewBox="0 0 24 24" fill="none" stroke="currentColor" stroke-width="1.7" stroke-linecap="round" stroke-linejoin="round">
            <line x1="12" y1="4" x2="12" y2="20"/>
            <line x1="6" y1="20" x2="18" y2="20"/>
            <line x1="4" y1="7" x2="20" y2="7"/>
            <path d="M4 7 L1.5 12 Q1.5 14 4 14 Q6.5 14 6.5 12 Z"/>
            <path d="M20 7 L17.5 12 Q17.5 14 20 14 Q22.5 14 22.5 12 Z"/>
        </symbol>

        <symbol id="icon-mountain" viewBox="0 0 24 24" fill="none" stroke="currentColor" stroke-width="1.7" stroke-linecap="round" stroke-linejoin="round">
            <path d="M2 20 L8 9 L12 16 L15 11 L22 20 Z"/>
            <path d="M7 11 L8.5 12.5 L9.5 11.5"/>
        </symbol>

        <symbol id="icon-fire" viewBox="0 0 24 24" fill="none" stroke="currentColor" stroke-width="1.7" stroke-linecap="round" stroke-linejoin="round">
            <path d="M12 21 Q5 18 5 12 Q5 8 9 5 Q8 9 11 11 Q12 7 15 6 Q14 10 17 12 Q19 14 19 17 Q19 21 12 21 Z"/>
        </symbol>

        <symbol id="icon-meditation" viewBox="0 0 24 24" fill="none" stroke="currentColor" stroke-width="1.7" stroke-linecap="round" stroke-linejoin="round">
            <circle cx="12" cy="6" r="2.5"/>
            <path d="M12 9.5 L12 13 L4 17 L4 19 L20 19 L20 17 L12 13"/>
        </symbol>

        <symbol id="icon-trophy" viewBox="0 0 24 24" fill="none" stroke="currentColor" stroke-width="1.7" stroke-linecap="round" stroke-linejoin="round">
            <path d="M7 4 L17 4 L17 11 Q17 14 12 14 Q7 14 7 11 Z"/>
            <path d="M7 6 L4 6 L4 9 Q4 11 7 11"/>
            <path d="M17 6 L20 6 L20 9 Q20 11 17 11"/>
            <line x1="12" y1="14" x2="12" y2="18"/>
            <line x1="8" y1="20" x2="16" y2="20"/>
            <line x1="9" y1="18" x2="15" y2="18"/>
        </symbol>

        <symbol id="icon-stopwatch" viewBox="0 0 24 24" fill="none" stroke="currentColor" stroke-width="1.7" stroke-linecap="round" stroke-linejoin="round">
            <circle cx="12" cy="13" r="8"/>
            <line x1="12" y1="13" x2="15" y2="10"/>
            <line x1="10" y1="3" x2="14" y2="3"/>
            <line x1="12" y1="3" x2="12" y2="5"/>
            <line x1="18" y1="6" x2="20" y2="4"/>
        </symbol>

        <symbol id="icon-calendar" viewBox="0 0 24 24" fill="none" stroke="currentColor" stroke-width="1.7" stroke-linecap="round" stroke-linejoin="round">
            <rect x="3.5" y="5" width="17" height="15" rx="1.5"/>
            <line x1="3.5" y1="10" x2="20.5" y2="10"/>
            <line x1="8" y1="3" x2="8" y2="7"/>
            <line x1="16" y1="3" x2="16" y2="7"/>
        </symbol>

        <symbol id="icon-phone" viewBox="0 0 24 24" fill="none" stroke="currentColor" stroke-width="1.7" stroke-linecap="round" stroke-linejoin="round">
            <path d="M6 3 L9 3 L11 8 L8.5 10 Q10 14 14 15.5 L16 13 L21 15 L21 18 Q21 21 18 21 Q9 21 3 12 Q3 6 6 3 Z"/>
        </symbol>

        <symbol id="icon-mail" viewBox="0 0 24 24" fill="none" stroke="currentColor" stroke-width="1.7" stroke-linecap="round" stroke-linejoin="round">
            <rect x="3" y="5" width="18" height="14" rx="2"/>
            <path d="M3 7 L12 13 L21 7"/>
        </symbol>

        <symbol id="icon-pin" viewBox="0 0 24 24" fill="none" stroke="currentColor" stroke-width="1.7" stroke-linecap="round" stroke-linejoin="round">
            <path d="M12 21 Q5 14 5 9 Q5 4 12 4 Q19 4 19 9 Q19 14 12 21 Z"/>
            <circle cx="12" cy="9" r="2.5"/>
        </symbol>

        <symbol id="icon-arrow-right" viewBox="0 0 24 24" fill="none" stroke="currentColor" stroke-width="2" stroke-linecap="round" stroke-linejoin="round">
            <line x1="5" y1="12" x2="19" y2="12"/>
            <polyline points="13,6 19,12 13,18"/>
        </symbol>
    </defs>
</svg>
